<svg width="298" height="274" viewBox="0 0 298 274" fill="none" xmlns="http://www.w3.org/2000/svg">
<path fill-rule="evenodd" clip-rule="evenodd" d="M69.5508 0.520508C90.979 6.85409 118.796 10.6836 149.207 10.6836L152.026 10.6729C181.076 10.4461 207.623 6.72501 228.309 0.683594L228.527 0.619141L228.719 0.742188C269.845 27.1016 297.102 73.2118 297.102 125.688C297.102 206.953 231.739 272.951 150.718 273.978L148.801 273.989C66.8966 273.989 0.5 207.593 0.5 125.688C0.500058 73.1025 27.8712 26.9099 69.1406 0.578125L69.332 0.456055L69.5508 0.520508ZM69.6484 2.62891C29.5646 28.4648 2.92076 73.344 2.50488 124.474L2.5 125.69C2.50106 206.489 68.0018 271.989 148.801 271.989L150.691 271.978C230.62 270.965 295.102 205.857 295.102 125.688C295.102 74.1625 268.465 28.8584 228.204 2.79199C207.408 8.7806 180.93 12.4474 152.041 12.6729H152.039L149.209 12.6836H149.207C118.955 12.6836 91.2031 8.91049 69.6484 2.62891Z" fill="url(#paint0_linear_97_728)"/>
<defs>
<linearGradient id="paint0_linear_97_728" x1="252.5" y1="248.5" x2="30.5" y2="60.5" gradientUnits="userSpaceOnUse">
<stop stop-color="#EF8089"/>
<stop offset="0.996264" stop-color="#E63946"/>
</linearGradient>
</defs>
</svg>
