<svg width="150" height="146" viewBox="0 0 150 146" fill="none" xmlns="http://www.w3.org/2000/svg">
<path d="M102.41 142.037C103.463 141.704 104.048 140.581 103.716 139.528L100.817 130.332C108.498 126.893 115.228 122.067 120.801 116.255L128.429 121.898C129.317 122.555 130.569 122.368 131.226 121.48L137.739 112.678C138.396 111.79 138.209 110.538 137.321 109.881L129.822 104.333C134.012 97.2059 136.825 89.2872 138.032 81.0165L146.954 81.0933C148.059 81.1029 148.962 80.215 148.972 79.1104L149.068 68.1623C149.078 67.0581 148.19 66.1553 147.086 66.1456L138.439 66.0711C138.03 61.5551 137.134 57.0134 135.715 52.5117C134.544 48.7976 133.066 45.2657 131.318 41.934L137.96 37.1956C138.859 36.5541 139.068 35.3055 138.427 34.4064L132.069 25.4938C131.428 24.5945 130.179 24.3856 129.28 25.0271L122.869 29.6007C117.157 23.0659 110.206 17.8052 102.504 14.0723L104.88 6.9724C105.23 5.9249 104.665 4.79212 103.618 4.44171L93.2357 0.968021C92.1883 0.617641 91.0548 1.18286 90.7041 2.23029L88.3863 9.15635C80.0566 7.30697 71.27 7.10193 62.5008 8.7883L60.3507 1.96781C60.0186 0.914521 58.8953 0.329872 57.842 0.661901L47.3998 3.95516C46.3464 4.28738 45.7617 5.41075 46.0937 6.46417L48.2438 13.2847C40.093 16.9345 33.0122 22.1434 27.2493 28.4377L21.3797 24.0938C20.4919 23.4371 19.2401 23.6243 18.583 24.5119L12.0697 33.3141C11.4129 34.202 11.5999 35.454 12.4875 36.1109L18.5042 40.5641C14.3358 48.0407 11.6586 56.338 10.7276 64.9676L2.85442 64.8989C1.74993 64.8894 0.846428 65.7772 0.836725 66.8818L0.741043 77.8296C0.731523 78.9339 1.61819 79.8368 2.72235 79.8466L10.879 79.9181C11.3583 83.6496 12.1739 87.3907 13.3447 91.1046C14.7639 95.6063 16.6336 99.841 18.8882 103.775L11.8487 108.797C10.9498 109.438 10.7414 110.687 11.3827 111.587L17.7394 120.499C18.3808 121.398 19.6298 121.607 20.529 120.965L27.7925 115.784C33.5237 121.866 40.3699 126.738 47.8895 130.173L44.929 139.02C44.5786 140.067 45.1435 141.201 46.1909 141.551L56.5737 145.024C57.6211 145.374 58.7538 144.809 59.1044 143.762L62.1152 134.763C70.0141 136.327 78.2949 136.418 86.5599 134.829L89.4587 144.024C89.7908 145.078 90.914 145.662 91.9674 145.33L102.41 142.037Z" fill="#D4D4D8"/>
<path d="M119.26 81.272C117.543 81.272 116.059 80.852 114.808 80.012C113.576 79.1533 112.633 77.968 111.98 76.456C111.327 74.9253 111 73.152 111 71.136C111 69.12 111.327 67.356 111.98 65.844C112.633 64.3133 113.576 63.128 114.808 62.288C116.059 61.4293 117.543 61 119.26 61C120.977 61 122.443 61.4293 123.656 62.288C124.888 63.128 125.831 64.3133 126.484 65.844C127.137 67.356 127.464 69.12 127.464 71.136C127.464 73.152 127.137 74.9253 126.484 76.456C125.831 77.968 124.888 79.1533 123.656 80.012C122.443 80.852 120.977 81.272 119.26 81.272ZM119.232 79.2C120.352 79.2 121.351 78.8827 122.228 78.248C123.105 77.5947 123.796 76.6707 124.3 75.476C124.804 74.2627 125.056 72.816 125.056 71.136C125.056 69.456 124.804 68.0187 124.3 66.824C123.796 65.6107 123.105 64.6867 122.228 64.052C121.351 63.4173 120.352 63.1 119.232 63.1C118.112 63.1 117.104 63.4173 116.208 64.052C115.331 64.6867 114.64 65.6107 114.136 66.824C113.651 68.0187 113.408 69.456 113.408 71.136C113.408 72.816 113.651 74.2627 114.136 75.476C114.64 76.6707 115.331 77.5947 116.208 78.248C117.104 78.8827 118.112 79.2 119.232 79.2Z" fill="black"/>
<path d="M106.084 52.7009L109.127 42.4749L98.4977 41.8541L101.569 39.7062L112.302 40.2961L109.155 50.553L106.084 52.7009ZM108.5 56.2141L107.238 54.411L117.071 47.5338L118.332 49.3369L108.5 56.2141Z" fill="black"/>
</svg>
