<svg width="32" height="78" viewBox="0 0 32 78" fill="none" xmlns="http://www.w3.org/2000/svg">
<path d="M25.7688 1.81287C22.1144 -0.217395 0.999901 1.81284 1 5.06122C1.0001 8.30961 31.0474 9.12172 31.0474 6.27937C31.0474 3.43702 1 4.24913 1 7.90355C1 11.558 31.0474 10.7966 31.0474 13.6897C31.0474 16.5828 1 16.5828 1 19.4759C1 22.3689 31.0474 22.3689 31.0474 25.262C31.0474 28.1551 1 28.1551 1 31.0482C1 33.9413 31.0474 33.9413 31.0474 36.8343C31.0474 39.7274 1 39.7274 1 42.6205C1 45.5136 31.0474 45.5136 31.0474 48.4066C31.0474 51.2997 1 51.2997 1 54.1928C1 57.0859 31.0474 57.0859 31.0474 59.9789C31.0474 62.872 1 62.872 1 65.7651C1 68.6582 31.0474 68.6582 31.0474 71.5513C31.0474 74.4443 1 77.3374 1 77.3374" stroke="#52525C" stroke-linecap="round" stroke-linejoin="round"/>
</svg>
